<svg width="200" height="200" viewBox="0 0 200 200" fill="none" xmlns="http://www.w3.org/2000/svg">
    <!-- 背景圆圈 -->
    <circle cx="100" cy="100" r="80" fill="#F5F6FA"/>
    
    <!-- 问号图标 -->
    <path d="M100 60C91.7157 60 85 66.7157 85 75C85 77.7614 87.2386 80 90 80C92.7614 80 95 77.7614 95 75C95 72.2386 97.2386 70 100 70C102.761 70 105 72.2386 105 75C105 77.7614 102.761 80 100 80C97.2386 80 95 82.2386 95 85V100C95 102.761 97.2386 105 100 105C102.761 105 105 102.761 105 100V89.1421C110.467 86.3317 114 80.6556 114 75C114 66.7157 107.284 60 100 60Z" fill="#6C5CE7"/>
    
    <!-- 问号下的点 -->
    <circle cx="100" cy="120" r="5" fill="#6C5CE7"/>
    
    <!-- 文字 -->
    <text x="100" y="150" text-anchor="middle" font-size="14" fill="#666666">暂无数据</text>
</svg> 